The premiere of the first part of Ulrich Seidls PARADISE trilogy was celebrated in this year's competition of the Cannes Film Festival with great success. The film tells the story of Teresa (Margarethe Tiesel), a 50-year-old Austrian from Vienna who travels as a sex tourist to Kenya in search of love. On the beaches of Kenya they┬┤re known as Sugar Mamas: European women to whom black beach boys offer sex to earn a living. The movie of Ulrich Seidl deals about older women and young men, the market value of sexuality, the power of skin color, Europe and Africa, and the exploited, who have no choice but to victimize other victims.

PARADISE: Love is the opener in a trilogy about three women in one family who take separate vacations: one as a sex tourist, another as a Catholic missionary (PARADISE: Faith) and the third at a diet camp for teenagers (PARADISE: Hope.) Three films, three women, three stories of longing.

General 
Complete name : Ulrich Seidl - Paradies Liebe (2012)Paradies.avi 
Format : AVI 
Format/Info : Audio Video Interleave 
File size : 1.77 GiB 
Duration : 2h 0mn 
Overall bit rate : 2 105 Kbps 
Writing application : VirtualDubMod 1.5.10.2 (build 2540/release) 
Writing library : VirtualDubMod build 2540/release 

Video 
ID : 0 
Format : MPEG-4 Visual 
Format profile : Advanced Simple@L5 
Format settings, BVOP : 1 
Format settings, QPel : No 
Format settings, GMC : No warppoints 
Format settings, Matrix : Default (MPEG) 
Codec ID : XVID 
Codec ID/Hint : XviD 
Duration : 2h 0mn 
Bit rate : 1 840 Kbps 
Width : 704 pixels 
Height : 384 pixels 
Display aspect ratio : 1.85:1 
Frame rate : 23.976 fps 
Color space : YUV 
Chroma subsampling : 4:2:0 
Bit depth : 8 bits 
Scan type : Progressive 
Compression mode : Lossy 
Bits/(Pixel*Frame) : 0.284 
Stream size : 1.55 GiB (87%) 
Writing library : XviD 64 

Audio 
ID : 1 
Format : MPEG Audio 
Format version : Version 1 
Format profile : Layer 3 
Mode : Joint stereo 
Mode extension : MS Stereo 
Codec ID : 55 
Codec ID/Hint : MP3 
Duration : 2h 0mn 
Bit rate mode : Constant 
Bit rate : 256 Kbps 
Channel(s) : 2 channels 
Sampling rate : 48.0 KHz 
Compression mode : Lossy 
Stream size : 221 MiB (12%) 
Alignment : Aligned on interleaves 
Interleave, duration : 42 ms (1.00 video frame) 
Interleave, preload duration : 504 ms 

Subs: English and russian

My rip.

